<svg width="63" height="60" viewBox="0 0 63 60" fill="none" xmlns="http://www.w3.org/2000/svg">
<path d="M31.8316 0.176468C31.8316 0.28235 31.3342 0.352938 30.6711 0.352938C30.0079 0.352938 29.5105 0.423527 29.5105 0.529409C29.5105 0.617644 29.1458 0.70588 28.6816 0.70588C28.2339 0.70588 27.8526 0.776468 27.8526 0.88235C27.8526 0.970586 27.6371 1.05882 27.3553 1.05882C27.09 1.05882 26.8579 1.12941 26.8579 1.23529C26.8579 1.32353 26.6424 1.41176 26.3605 1.41176C26.0953 1.41176 25.8632 1.48235 25.8632 1.58823C25.8632 1.67647 25.6476 1.7647 25.3658 1.7647C25.1005 1.7647 24.8684 1.83529 24.8684 1.94117C24.8684 2.02941 24.6529 2.11764 24.3711 2.11764C24.1058 2.11764 23.8737 2.18823 23.8737 2.29411C23.8737 2.38235 23.7245 2.47059 23.5421 2.47059C23.3597 2.47059 23.2105 2.54117 23.2105 2.64706C23.2105 2.73529 23.0613 2.82353 22.8789 2.82353C22.6966 2.82353 22.5474 2.89412 22.5474 3C22.5474 3.08823 22.3982 3.17647 22.2158 3.17647C22.0334 3.17647 21.8842 3.24706 21.8842 3.35294C21.8842 3.44117 21.735 3.52941 21.5526 3.52941C21.3703 3.52941 21.2211 3.6 21.2211 3.70588C21.2211 3.79412 21.0884 3.88235 20.9226 3.88235C20.7568 3.88235 20.5247 4.04117 20.3921 4.23529C20.2595 4.42941 20.0439 4.58823 19.8947 4.58823C19.7455 4.58823 19.53 4.74706 19.3974 4.94117C19.2647 5.13529 19.0492 5.29412 18.9 5.29412C18.7508 5.29412 18.5353 5.45294 18.4026 5.64706C18.27 5.84117 18.0711 6 17.9384 6C17.8224 6 17.3582 6.38823 16.9105 6.88235C16.4629 7.35882 16.0153 7.7647 15.9158 7.7647C15.6837 7.7647 13.9263 9.63529 13.9263 9.88235C13.9263 9.98823 13.5616 10.4647 13.0974 10.9412C12.6497 11.4176 12.2684 11.9118 12.2684 12.0353C12.2684 12.1765 12.1192 12.3882 11.9368 12.5294C11.7545 12.6706 11.6053 12.9 11.6053 13.0588C11.6053 13.2176 11.4561 13.4471 11.2737 13.5882C11.0913 13.7294 10.9421 13.9588 10.9421 14.1176C10.9421 14.2765 10.7929 14.5059 10.6105 14.6471C10.4282 14.7882 10.2789 15.0353 10.2789 15.2118C10.2789 15.3882 10.2126 15.5294 10.1132 15.5294C10.0303 15.5294 9.94737 15.6882 9.94737 15.8824C9.94737 16.0765 9.88105 16.2353 9.78158 16.2353C9.69868 16.2353 9.61579 16.3941 9.61579 16.5882C9.61579 16.7824 9.54947 16.9412 9.45 16.9412C9.36711 16.9412 9.28421 17.1 9.28421 17.2941C9.28421 17.4882 9.2179 17.6471 9.11842 17.6471C9.03553 17.6471 8.95263 17.8059 8.95263 18C8.95263 18.1941 8.88632 18.3529 8.78684 18.3529C8.70395 18.3529 8.62105 18.5824 8.62105 18.8824C8.62105 19.1647 8.55474 19.4118 8.45526 19.4118C8.37237 19.4118 8.28947 19.6412 8.28947 19.9412C8.28947 20.2235 8.22316 20.4706 8.12368 20.4706C8.04079 20.4706 7.9579 20.7 7.9579 21C7.9579 21.2824 7.89158 21.5294 7.79211 21.5294C7.70921 21.5294 7.62632 21.7588 7.62632 22.0588C7.62632 22.3412 7.56 22.5882 7.46053 22.5882C7.37763 22.5882 7.29474 22.9765 7.29474 23.4706C7.29474 23.9471 7.22842 24.3529 7.12895 24.3529C7.02947 24.3529 6.96316 24.8647 6.96316 25.5176C6.96316 27.1765 6.96316 27.1765 4.07842 27.1765C2.56974 27.1765 1.65789 27.2471 1.65789 27.3529C1.65789 27.4412 1.54184 27.5294 1.40921 27.5294C1.07763 27.5294 0.331579 28.3235 0.331579 28.6765C0.331579 28.8176 0.265263 28.9412 0.165789 28.9412C0.0663158 28.9412 0 29.4176 0 30C0 30.5824 0.0663158 31.0588 0.165789 31.0588C0.265263 31.0588 0.331579 31.1824 0.331579 31.3235C0.331579 31.6765 1.07763 32.4706 1.40921 32.4706C1.54184 32.4706 1.65789 32.5412 1.65789 32.6471C1.65789 32.7706 5.71974 32.8235 13.5118 32.8235H25.3824L26.1118 32.0294C26.5263 31.6059 26.8579 31.1294 26.8579 30.9706C26.8579 30.8294 26.9408 30.7059 27.0237 30.7059C27.1232 30.7059 27.1895 30.5471 27.1895 30.3529C27.1895 30.1588 27.2724 30 27.3553 30C27.4547 30 27.5211 29.8412 27.5211 29.6471C27.5211 29.4529 27.6039 29.2941 27.6868 29.2941C27.7863 29.2941 27.8526 29.1353 27.8526 28.9412C27.8526 28.7471 27.9355 28.5882 28.0184 28.5882C28.1179 28.5882 28.1842 28.4294 28.1842 28.2353C28.1842 28.0412 28.2671 27.8824 28.35 27.8824C28.4495 27.8824 28.5158 27.7588 28.5158 27.6C28.5158 27.4588 28.6318 27.2118 28.7645 27.0706C28.98 26.8235 29.0463 26.8235 29.2618 27.0706C29.3945 27.2118 29.5105 27.4588 29.5105 27.6C29.5105 27.7588 29.5934 27.8824 29.6763 27.8824C29.7758 27.8824 29.8421 28.0412 29.8421 28.2353C29.8421 28.4294 29.925 28.5882 30.0079 28.5882C30.1074 28.5882 30.1737 28.7471 30.1737 28.9412C30.1737 29.1353 30.2566 29.2941 30.3395 29.2941C30.4389 29.2941 30.5053 29.4529 30.5053 29.6471C30.5053 29.8412 30.5882 30 30.6711 30C30.7705 30 30.8368 30.1588 30.8368 30.3529C30.8368 30.5471 30.9197 30.7059 31.0026 30.7059C31.1021 30.7059 31.1684 30.8471 31.1684 31.0235C31.1684 31.2 31.3176 31.4471 31.5 31.5882C31.6824 31.7294 31.8316 31.9765 31.8316 32.1529C31.8316 32.3294 31.9145 32.4706 31.9974 32.4706C32.0968 32.4706 32.1632 32.6294 32.1632 32.8235C32.1632 33.0176 32.2461 33.1765 32.3289 33.1765C32.4284 33.1765 32.4947 33.3353 32.4947 33.5294C32.4947 33.7235 32.5776 33.8824 32.6605 33.8824C32.76 33.8824 32.8263 34.0412 32.8263 34.2353C32.8263 34.4294 32.9092 34.5882 32.9921 34.5882C33.0916 34.5882 33.1579 34.7471 33.1579 34.9412C33.1579 35.1353 33.2408 35.2941 33.3237 35.2941C33.4232 35.2941 33.4895 35.4529 33.4895 35.6471C33.4895 35.8412 33.5724 36 33.6553 36C33.7547 36 33.8211 36.1588 33.8211 36.3529C33.8211 36.5471 33.9039 36.7059 33.9868 36.7059C34.0863 36.7059 34.1526 36.8647 34.1526 37.0588C34.1526 37.2529 34.2355 37.4118 34.3184 37.4118C34.4179 37.4118 34.4842 37.5706 34.4842 37.7647C34.4842 37.9588 34.5671 38.1176 34.65 38.1176C34.7495 38.1176 34.8158 38.2765 34.8158 38.4706C34.8158 38.6647 34.8987 38.8235 34.9816 38.8235C35.0811 38.8235 35.1474 38.9824 35.1474 39.1765C35.1474 39.3706 35.2303 39.5294 35.3132 39.5294C35.4126 39.5294 35.4789 39.6882 35.4789 39.8824C35.4789 40.0765 35.5618 40.2353 35.6447 40.2353C35.7442 40.2353 35.8105 40.3765 35.8105 40.5529C35.8105 40.7294 35.9597 40.9765 36.1421 41.1176C36.3245 41.2588 36.4737 41.4706 36.4737 41.6118C36.4737 41.9294 36.8882 42.3529 37.2032 42.3529C37.3524 42.3529 37.4684 42.4235 37.4684 42.5294C37.4684 42.6353 37.9326 42.7059 38.5461 42.7059C39.6071 42.7059 39.6403 42.6882 40.3697 41.9118C40.7842 41.4882 41.1158 41.0118 41.1158 40.8529C41.1158 40.7118 41.1987 40.5882 41.2816 40.5882C41.3811 40.5882 41.4474 40.4294 41.4474 40.2353C41.4474 40.0412 41.5303 39.8824 41.6132 39.8824C41.7126 39.8824 41.7789 39.7235 41.7789 39.5294C41.7789 39.3353 41.8618 39.1765 41.9447 39.1765C42.0442 39.1765 42.1105 39.0176 42.1105 38.8235C42.1105 38.6294 42.1934 38.4706 42.2763 38.4706C42.3758 38.4706 42.4421 38.3118 42.4421 38.1176C42.4421 37.9235 42.525 37.7647 42.6079 37.7647C42.7074 37.7647 42.7737 37.6235 42.7737 37.4471C42.7737 37.2706 42.9229 37.0235 43.1053 36.8824C43.2876 36.7412 43.4368 36.4941 43.4368 36.3176C43.4368 36.1412 43.5197 36 43.6026 36C43.7021 36 43.7684 35.8412 43.7684 35.6471C43.7684 35.4529 43.8513 35.2941 43.9342 35.2941C44.0337 35.2941 44.1 35.1353 44.1 34.9412C44.1 34.7471 44.1829 34.5882 44.2658 34.5882C44.3653 34.5882 44.4316 34.4294 44.4316 34.2353C44.4316 34.0412 44.5145 33.8824 44.5974 33.8824C44.6968 33.8824 44.7632 33.7588 44.7632 33.6C44.7632 32.9294 45.1445 32.8235 47.6479 32.8235C49.1566 32.8235 50.0684 32.7529 50.0684 32.6471C50.0684 32.5412 50.1845 32.4706 50.3171 32.4706C50.6487 32.4706 51.3947 31.6765 51.3947 31.3235C51.3947 31.1824 51.4776 31.0588 51.5605 31.0588C51.66 31.0588 51.7263 30.5824 51.7263 30C51.7263 29.4176 51.66 28.9412 51.5605 28.9412C51.4776 28.9412 51.3947 28.8176 51.3947 28.6765C51.3947 28.2176 50.3005 27.1765 49.8197 27.1765C49.5876 27.1765 49.4053 27.0882 49.4053 27C49.4053 26.8941 48.195 26.8235 46.0895 26.8235C43.9839 26.8235 42.7737 26.8941 42.7737 27C42.7737 27.0882 42.6245 27.1765 42.4421 27.1765C42.2597 27.1765 42.1105 27.2471 42.1105 27.3529C42.1105 27.4412 41.9945 27.5294 41.8453 27.5294C41.5137 27.5294 41.1158 27.9529 41.1158 28.3059C41.1158 28.4647 41.0495 28.5882 40.95 28.5882C40.8671 28.5882 40.7842 28.7471 40.7842 28.9412C40.7842 29.1353 40.7179 29.2941 40.6184 29.2941C40.5355 29.2941 40.4526 29.4529 40.4526 29.6471C40.4526 29.8412 40.3863 30 40.2868 30C40.2039 30 40.1211 30.1588 40.1211 30.3529C40.1211 30.5471 40.0547 30.7059 39.9553 30.7059C39.8724 30.7059 39.7895 30.8471 39.7895 31.0235C39.7895 31.2 39.6403 31.4471 39.4579 31.5882C39.2755 31.7294 39.1263 31.9765 39.1263 32.1529C39.1263 32.3294 39.06 32.4706 38.9605 32.4706C38.8776 32.4706 38.7947 32.6294 38.7947 32.8235C38.7947 33.0176 38.745 33.1765 38.6953 33.1765C38.5129 33.1765 38.1316 32.6647 38.1316 32.4C38.1316 32.2412 38.0653 32.1176 37.9658 32.1176C37.8829 32.1176 37.8 31.9588 37.8 31.7647C37.8 31.5706 37.7337 31.4118 37.6342 31.4118C37.5513 31.4118 37.4684 31.2529 37.4684 31.0588C37.4684 30.8647 37.4021 30.7059 37.3026 30.7059C37.2197 30.7059 37.1368 30.5471 37.1368 30.3529C37.1368 30.1588 37.0705 30 36.9711 30C36.8882 30 36.8053 29.8412 36.8053 29.6471C36.8053 29.4529 36.7389 29.2941 36.6395 29.2941C36.5566 29.2941 36.4737 29.1353 36.4737 28.9412C36.4737 28.7471 36.4074 28.5882 36.3079 28.5882C36.225 28.5882 36.1421 28.4294 36.1421 28.2353C36.1421 28.0412 36.0758 27.8824 35.9763 27.8824C35.8934 27.8824 35.8105 27.7412 35.8105 27.5647C35.8105 27.3882 35.6613 27.1412 35.4789 27C35.2966 26.8588 35.1474 26.6118 35.1474 26.4353C35.1474 26.2588 35.0811 26.1176 34.9816 26.1176C34.8987 26.1176 34.8158 25.9588 34.8158 25.7647C34.8158 25.5706 34.7495 25.4118 34.65 25.4118C34.5671 25.4118 34.4842 25.2529 34.4842 25.0588C34.4842 24.8647 34.4179 24.7059 34.3184 24.7059C34.2355 24.7059 34.1526 24.5471 34.1526 24.3529C34.1526 24.1588 34.0863 24 33.9868 24C33.9039 24 33.8211 23.8412 33.8211 23.6471C33.8211 23.4529 33.7547 23.2941 33.6553 23.2941C33.5724 23.2941 33.4895 23.1353 33.4895 22.9412C33.4895 22.7471 33.4232 22.5882 33.3237 22.5882C33.2408 22.5882 33.1579 22.4294 33.1579 22.2353C33.1579 22.0412 33.0916 21.8824 32.9921 21.8824C32.9092 21.8824 32.8263 21.7235 32.8263 21.5294C32.8263 21.3353 32.76 21.1765 32.6605 21.1765C32.5776 21.1765 32.4947 21.0176 32.4947 20.8235C32.4947 20.6294 32.4284 20.4706 32.3289 20.4706C32.2461 20.4706 32.1632 20.3118 32.1632 20.1176C32.1632 19.9235 32.0968 19.7647 31.9974 19.7647C31.9145 19.7647 31.8316 19.6235 31.8316 19.4471C31.8316 19.2706 31.6824 19.0235 31.5 18.8824C31.3176 18.7412 31.1684 18.4941 31.1684 18.3176C31.1684 18.1235 31.0524 18 30.8368 18C30.6545 18 30.5053 17.9118 30.5053 17.8235C30.5053 17.7176 30.3561 17.6471 30.1737 17.6471C29.9913 17.6471 29.8421 17.5588 29.8421 17.4706C29.8421 17.3647 29.4774 17.2941 29.0132 17.2941C28.5655 17.2941 28.1842 17.3647 28.1842 17.4706C28.1842 17.5588 28.0682 17.6471 27.9355 17.6471C27.6039 17.6471 26.5263 18.7941 26.5263 19.1471C26.5263 19.2882 26.46 19.4118 26.3605 19.4118C26.2776 19.4118 26.1947 19.5706 26.1947 19.7647C26.1947 19.9588 26.1284 20.1176 26.0289 20.1176C25.9461 20.1176 25.8632 20.2765 25.8632 20.4706C25.8632 20.6647 25.7968 20.8235 25.6974 20.8235C25.6145 20.8235 25.5316 20.9824 25.5316 21.1765C25.5316 21.3706 25.4653 21.5294 25.3658 21.5294C25.2829 21.5294 25.2 21.6706 25.2 21.8471C25.2 22.0235 25.0508 22.2706 24.8684 22.4118C24.6861 22.5529 24.5368 22.8 24.5368 22.9765C24.5368 23.1529 24.4705 23.2941 24.3711 23.2941C24.2882 23.2941 24.2053 23.4529 24.2053 23.6471C24.2053 23.8412 24.1389 24 24.0395 24C23.9566 24 23.8737 24.1588 23.8737 24.3529C23.8737 24.5471 23.8074 24.7059 23.7079 24.7059C23.625 24.7059 23.5421 24.8647 23.5421 25.0588C23.5421 25.2529 23.4758 25.4118 23.3763 25.4118C23.2934 25.4118 23.2105 25.5706 23.2105 25.7647C23.2105 25.9588 23.1442 26.1176 23.0447 26.1176C22.9618 26.1176 22.8789 26.2412 22.8789 26.4C22.8789 27.1412 22.6468 27.1765 17.3416 27.1765C12.3845 27.1765 12.2684 27.1765 12.2684 26.8235C12.2684 26.6294 12.3513 26.4706 12.4342 26.4706C12.5337 26.4706 12.6 26.0647 12.6 25.5882C12.6 25.0941 12.6829 24.7059 12.7658 24.7059C12.8653 24.7059 12.9316 24.3882 12.9316 24C12.9316 23.6118 13.0145 23.2941 13.0974 23.2941C13.1968 23.2941 13.2632 23.0471 13.2632 22.7647C13.2632 22.4647 13.3461 22.2353 13.4289 22.2353C13.5284 22.2353 13.5947 21.9882 13.5947 21.7059C13.5947 21.4059 13.6776 21.1765 13.7605 21.1765C13.86 21.1765 13.9263 21.0176 13.9263 20.8235C13.9263 20.6294 14.0092 20.4706 14.0921 20.4706C14.1916 20.4706 14.2579 20.3118 14.2579 20.1176C14.2579 19.9235 14.3408 19.7647 14.4237 19.7647C14.5232 19.7647 14.5895 19.5353 14.5895 19.2706C14.5895 18.9882 14.7221 18.6706 14.9211 18.5294C15.1034 18.3882 15.2526 18.1412 15.2526 17.9647C15.2526 17.7882 15.3355 17.6471 15.4184 17.6471C15.5179 17.6471 15.5842 17.5059 15.5842 17.3294C15.5842 17.1529 15.7334 16.9059 15.9158 16.7647C16.0982 16.6235 16.2474 16.3941 16.2474 16.2706C16.2474 16.1471 16.5458 15.7235 16.9105 15.3529C17.2753 14.9824 17.5737 14.5941 17.5737 14.4882C17.5737 14.2235 19.9942 11.6471 20.2429 11.6471C20.3424 11.6471 20.7071 11.3294 21.0553 10.9412C21.4034 10.5529 21.8013 10.2353 21.9174 10.2353C22.0334 10.2353 22.2489 10.0765 22.3816 9.88235C22.5142 9.68823 22.7463 9.52941 22.9121 9.52941C23.0779 9.52941 23.2105 9.44117 23.2105 9.35294C23.2105 9.24706 23.3597 9.17647 23.5421 9.17647C23.7245 9.17647 23.8737 9.08823 23.8737 9C23.8737 8.89412 24.0229 8.82353 24.2053 8.82353C24.3876 8.82353 24.5368 8.73529 24.5368 8.64706C24.5368 8.54117 24.6861 8.47059 24.8684 8.47059C25.0508 8.47059 25.2 8.38235 25.2 8.29412C25.2 8.18823 25.3492 8.11764 25.5316 8.11764C25.7139 8.11764 25.8632 8.02941 25.8632 7.94117C25.8632 7.83529 26.0124 7.7647 26.1947 7.7647C26.3771 7.7647 26.5263 7.67647 26.5263 7.58823C26.5263 7.48235 26.7584 7.41176 27.0237 7.41176C27.3055 7.41176 27.5211 7.32353 27.5211 7.23529C27.5211 7.12941 27.7532 7.05882 28.0184 7.05882C28.3003 7.05882 28.5158 6.97059 28.5158 6.88235C28.5158 6.77647 28.8142 6.70588 29.1789 6.70588C29.5437 6.70588 29.8421 6.61764 29.8421 6.52941C29.8421 6.42353 30.2897 6.35294 30.8368 6.35294C31.3839 6.35294 31.8316 6.28235 31.8316 6.17647C31.8316 6.07059 32.9921 6 34.9816 6C36.9711 6 38.1316 6.07059 38.1316 6.17647C38.1316 6.2647 38.5129 6.35294 38.9605 6.35294C39.4247 6.35294 39.7895 6.42353 39.7895 6.52941C39.7895 6.61764 40.0879 6.70588 40.4526 6.70588C40.8174 6.70588 41.1158 6.77647 41.1158 6.88235C41.1158 6.97059 41.3479 7.05882 41.6132 7.05882C41.895 7.05882 42.1105 7.12941 42.1105 7.23529C42.1105 7.32353 42.3426 7.41176 42.6079 7.41176C42.8897 7.41176 43.1053 7.48235 43.1053 7.58823C43.1053 7.67647 43.2545 7.7647 43.4368 7.7647C43.6192 7.7647 43.7684 7.83529 43.7684 7.94117C43.7684 8.02941 43.9176 8.11764 44.1 8.11764C44.2824 8.11764 44.4316 8.18823 44.4316 8.29412C44.4316 8.38235 44.5808 8.47059 44.7632 8.47059C44.9455 8.47059 45.0947 8.54117 45.0947 8.64706C45.0947 8.73529 45.2439 8.82353 45.4263 8.82353C45.6087 8.82353 45.7579 8.89412 45.7579 9C45.7579 9.08823 45.9071 9.17647 46.0895 9.17647C46.2718 9.17647 46.4211 9.24706 46.4211 9.35294C46.4211 9.44117 46.5537 9.52941 46.7195 9.52941C46.8853 9.52941 47.1174 9.68823 47.25 9.88235C47.3826 10.0765 47.5982 10.2353 47.7142 10.2353C47.8468 10.2353 48.1618 10.4647 48.4105 10.7647C48.6592 11.0471 48.9576 11.2941 49.0571 11.2941C49.3058 11.2941 52.3895 14.5765 52.3895 14.8412C52.3895 14.9471 52.6216 15.2647 52.8868 15.5294C53.1687 15.7941 53.3842 16.1294 53.3842 16.2706C53.3842 16.3941 53.5334 16.6235 53.7158 16.7647C53.8982 16.9059 54.0474 17.1529 54.0474 17.3294C54.0474 17.5059 54.1303 17.6471 54.2132 17.6471C54.3126 17.6471 54.3789 17.7882 54.3789 17.9647C54.3789 18.1412 54.5282 18.3882 54.7105 18.5294C54.8929 18.6706 55.0421 18.9176 55.0421 19.0941C55.0421 19.2706 55.125 19.4118 55.2079 19.4118C55.3074 19.4118 55.3737 19.5706 55.3737 19.7647C55.3737 19.9588 55.4566 20.1176 55.5395 20.1176C55.6389 20.1176 55.7053 20.3471 55.7053 20.6471C55.7053 20.9294 55.7882 21.1765 55.8711 21.1765C55.9705 21.1765 56.0368 21.4059 56.0368 21.7059C56.0368 21.9882 56.1197 22.2353 56.2026 22.2353C56.3021 22.2353 56.3684 22.4647 56.3684 22.7647C56.3684 23.0471 56.4513 23.2941 56.5342 23.2941C56.6337 23.2941 56.7 23.5235 56.7 23.8235C56.7 24.1059 56.7829 24.3529 56.8658 24.3529C56.9653 24.3529 57.0316 24.7412 57.0316 25.2353C57.0316 25.7118 57.1145 26.1176 57.1974 26.1176C57.2968 26.1176 57.3632 27.5294 57.3632 30C57.3632 32.4706 57.2968 33.8824 57.1974 33.8824C57.1145 33.8824 57.0316 34.2706 57.0316 34.7647C57.0316 35.2412 56.9653 35.6471 56.8658 35.6471C56.7829 35.6471 56.7 35.9647 56.7 36.3529C56.7 36.7412 56.6337 37.0588 56.5342 37.0588C56.4513 37.0588 56.3684 37.2882 56.3684 37.5882C56.3684 37.8706 56.3021 38.1176 56.2026 38.1176C56.1197 38.1176 56.0368 38.2765 56.0368 38.4706C56.0368 38.6647 55.9705 38.8235 55.8711 38.8235C55.7882 38.8235 55.7053 39.0529 55.7053 39.3529C55.7053 39.6353 55.6389 39.8824 55.5395 39.8824C55.4566 39.8824 55.3737 40.0412 55.3737 40.2353C55.3737 40.4294 55.3074 40.5882 55.2079 40.5882C55.125 40.5882 55.0421 40.7471 55.0421 40.9412C55.0421 41.1353 54.9758 41.2941 54.8763 41.2941C54.7934 41.2941 54.7105 41.4353 54.7105 41.6118C54.7105 41.7882 54.5613 42.0353 54.3789 42.1765C54.1966 42.3176 54.0474 42.5647 54.0474 42.7412C54.0474 42.9176 53.9811 43.0588 53.8816 43.0588C53.7987 43.0588 53.7158 43.1824 53.7158 43.3412C53.7158 43.5 53.5003 43.8529 53.2184 44.1176C52.9532 44.3824 52.7211 44.7 52.7211 44.8059C52.7211 45.0706 48.9742 49.0588 48.7255 49.0588C48.6261 49.0588 48.3276 49.2882 48.0789 49.5882C47.8303 49.8706 47.4987 50.1176 47.3495 50.1176C47.2003 50.1176 47.0842 50.1882 47.0842 50.2941C47.0842 50.3824 46.9516 50.4706 46.7858 50.4706C46.62 50.4706 46.3879 50.6294 46.2553 50.8235C46.1226 51.0176 45.8905 51.1765 45.7247 51.1765C45.5589 51.1765 45.4263 51.2471 45.4263 51.3529C45.4263 51.4412 45.2771 51.5294 45.0947 51.5294C44.9124 51.5294 44.7632 51.6 44.7632 51.7059C44.7632 51.7941 44.6139 51.8824 44.4316 51.8824C44.2492 51.8824 44.1 51.9529 44.1 52.0588C44.1 52.1471 43.8845 52.2353 43.6026 52.2353C43.3374 52.2353 43.1053 52.3059 43.1053 52.4118C43.1053 52.5 42.9561 52.5882 42.7737 52.5882C42.5913 52.5882 42.4421 52.6588 42.4421 52.7647C42.4421 52.8529 42.2266 52.9412 41.9447 52.9412C41.6795 52.9412 41.4474 53.0118 41.4474 53.1176C41.4474 53.2059 41.1489 53.2941 40.7842 53.2941C40.4195 53.2941 40.1211 53.3647 40.1211 53.4706C40.1211 53.5588 39.7563 53.6471 39.2921 53.6471C38.8445 53.6471 38.4632 53.7176 38.4632 53.8235C38.4632 53.9294 37.1368 54 34.8158 54C32.4947 54 31.1684 53.9294 31.1684 53.8235C31.1684 53.7176 30.8037 53.6471 30.3395 53.6471C29.8918 53.6471 29.5105 53.5588 29.5105 53.4706C29.5105 53.3647 29.2121 53.2941 28.8474 53.2941C28.4826 53.2941 28.1842 53.2059 28.1842 53.1176C28.1842 53.0118 27.9687 52.9412 27.6868 52.9412C27.4216 52.9412 27.1895 52.8529 27.1895 52.7647C27.1895 52.6588 27.0403 52.5882 26.8579 52.5882C26.6755 52.5882 26.5263 52.5 26.5263 52.4118C26.5263 52.3059 26.3108 52.2353 26.0289 52.2353C25.7637 52.2353 25.5316 52.1471 25.5316 52.0588C25.5316 51.9529 25.3824 51.8824 25.2 51.8824C25.0176 51.8824 24.8684 51.7941 24.8684 51.7059C24.8684 51.6 24.7192 51.5294 24.5368 51.5294C24.3545 51.5294 24.2053 51.4412 24.2053 51.3529C24.2053 51.2471 24.0726 51.1765 23.9068 51.1765C23.7411 51.1765 23.5089 51.0176 23.3763 50.8235C23.2437 50.6294 23.0282 50.4706 22.8789 50.4706C22.7297 50.4706 22.5142 50.3118 22.3816 50.1176C22.2489 49.9235 22.0334 49.7647 21.9174 49.7647C21.7847 49.7647 21.4697 49.5176 21.2211 49.2353C20.9724 48.9353 20.6739 48.7059 20.5745 48.7059C20.3258 48.7059 17.2421 45.4235 17.2421 45.1588C17.2421 45.0529 17.01 44.7353 16.7447 44.4706C16.4629 44.2059 16.2474 43.8706 16.2474 43.7294C16.2474 43.6059 16.0982 43.3765 15.9158 43.2353C15.7334 43.0941 15.5842 42.8647 15.5842 42.7059C15.5842 42.5471 15.435 42.3176 15.2526 42.1765C15.0703 42.0353 14.9211 41.7882 14.9211 41.6118C14.9211 41.4353 14.8547 41.2941 14.7553 41.2941C14.6724 41.2941 14.5895 41.1353 14.5895 40.9412C14.5895 40.7471 14.5232 40.5882 14.4237 40.5882C14.3408 40.5882 14.2579 40.4294 14.2579 40.2353C14.2579 40.0412 14.1916 39.8824 14.0921 39.8824C14.0092 39.8824 13.9263 39.7235 13.9263 39.5294C13.9263 39.1941 13.8103 39.1765 10.9421 39.1765C9.06868 39.1765 7.9579 39.2471 7.9579 39.3529C7.9579 39.4412 8.04079 39.5294 8.12368 39.5294C8.22316 39.5294 8.28947 39.7588 8.28947 40.0588C8.28947 40.3412 8.37237 40.5882 8.45526 40.5882C8.55474 40.5882 8.62105 40.8176 8.62105 41.1176C8.62105 41.4 8.70395 41.6471 8.78684 41.6471C8.88632 41.6471 8.95263 41.8059 8.95263 42C8.95263 42.1941 9.03553 42.3529 9.11842 42.3529C9.2179 42.3529 9.28421 42.5118 9.28421 42.7059C9.28421 42.9 9.36711 43.0588 9.45 43.0588C9.54947 43.0588 9.61579 43.2176 9.61579 43.4118C9.61579 43.6059 9.69868 43.7647 9.78158 43.7647C9.88105 43.7647 9.94737 43.9235 9.94737 44.1176C9.94737 44.3118 10.0303 44.4706 10.1132 44.4706C10.2126 44.4706 10.2789 44.6118 10.2789 44.7882C10.2789 44.9647 10.4282 45.2118 10.6105 45.3529C10.7929 45.4941 10.9421 45.7235 10.9421 45.8824C10.9421 46.0412 11.0913 46.2706 11.2737 46.4118C11.4561 46.5529 11.6053 46.7824 11.6053 46.9412C11.6053 47.1 11.7545 47.3294 11.9368 47.4706C12.1192 47.6118 12.2684 47.8235 12.2684 47.9647C12.2684 48.0882 12.6332 48.5824 13.0974 49.0588C13.545 49.5353 13.9263 50.0118 13.9263 50.1176C13.9263 50.3647 15.6837 52.2353 15.9158 52.2353C16.0153 52.2353 16.4629 52.6235 16.9105 53.1176C17.3582 53.5941 17.8224 54 17.9384 54C18.0711 54 18.27 54.1588 18.4026 54.3529C18.5353 54.5471 18.7508 54.7059 18.9 54.7059C19.0492 54.7059 19.2647 54.8647 19.3974 55.0588C19.53 55.2529 19.7455 55.4118 19.8947 55.4118C20.0439 55.4118 20.2595 55.5706 20.3921 55.7647C20.5247 55.9588 20.7568 56.1176 20.9226 56.1176C21.0884 56.1176 21.2211 56.1882 21.2211 56.2941C21.2211 56.3824 21.3703 56.4706 21.5526 56.4706C21.735 56.4706 21.8842 56.5412 21.8842 56.6471C21.8842 56.7353 22.0334 56.8235 22.2158 56.8235C22.3982 56.8235 22.5474 56.8941 22.5474 57C22.5474 57.0882 22.6966 57.1765 22.8789 57.1765C23.0613 57.1765 23.2105 57.2471 23.2105 57.3529C23.2105 57.4412 23.3597 57.5294 23.5421 57.5294C23.7245 57.5294 23.8737 57.6 23.8737 57.7059C23.8737 57.7941 24.1058 57.8824 24.3711 57.8824C24.6529 57.8824 24.8684 57.9529 24.8684 58.0588C24.8684 58.1471 25.1005 58.2353 25.3658 58.2353C25.6476 58.2353 25.8632 58.3059 25.8632 58.4118C25.8632 58.5 26.0953 58.5882 26.3605 58.5882C26.6424 58.5882 26.8579 58.6588 26.8579 58.7647C26.8579 58.8529 27.1563 58.9412 27.5211 58.9412C27.8858 58.9412 28.1842 59.0118 28.1842 59.1176C28.1842 59.2059 28.4826 59.2941 28.8474 59.2941C29.2121 59.2941 29.5105 59.3647 29.5105 59.4706C29.5105 59.5765 30.0079 59.6471 30.6711 59.6471C31.3342 59.6471 31.8316 59.7176 31.8316 59.8235C31.8316 59.9294 32.9424 60 34.8158 60C36.6892 60 37.8 59.9294 37.8 59.8235C37.8 59.7176 38.2974 59.6471 38.9605 59.6471C39.6237 59.6471 40.1211 59.5765 40.1211 59.4706C40.1211 59.3647 40.4195 59.2941 40.7842 59.2941C41.1489 59.2941 41.4474 59.2059 41.4474 59.1176C41.4474 59.0118 41.7458 58.9412 42.1105 58.9412C42.4753 58.9412 42.7737 58.8529 42.7737 58.7647C42.7737 58.6588 43.0058 58.5882 43.2711 58.5882C43.5529 58.5882 43.7684 58.5 43.7684 58.4118C43.7684 58.3059 44.0005 58.2353 44.2658 58.2353C44.5476 58.2353 44.7632 58.1471 44.7632 58.0588C44.7632 57.9529 44.9124 57.8824 45.0947 57.8824C45.2771 57.8824 45.4263 57.7941 45.4263 57.7059C45.4263 57.6 45.6584 57.5294 45.9237 57.5294C46.2055 57.5294 46.4211 57.4412 46.4211 57.3529C46.4211 57.2471 46.5703 57.1765 46.7526 57.1765C46.935 57.1765 47.0842 57.0882 47.0842 57C47.0842 56.8941 47.2334 56.8235 47.4158 56.8235C47.5982 56.8235 47.7474 56.7353 47.7474 56.6471C47.7474 56.5412 47.8966 56.4706 48.0789 56.4706C48.2613 56.4706 48.4105 56.3824 48.4105 56.2941C48.4105 56.1882 48.5432 56.1176 48.7089 56.1176C48.8747 56.1176 49.1068 55.9588 49.2395 55.7647C49.3721 55.5706 49.5876 55.4118 49.7368 55.4118C49.8861 55.4118 50.1016 55.2529 50.2342 55.0588C50.3668 54.8647 50.5824 54.7059 50.7316 54.7059C50.8808 54.7059 51.0963 54.5471 51.2289 54.3529C51.3616 54.1588 51.5605 54 51.6932 54C51.8092 54 52.3563 53.5235 52.8868 52.9412C53.4174 52.3588 53.9479 51.8824 54.0474 51.8824C54.2795 51.8824 55.3737 50.7176 55.3737 50.4706C55.3737 50.3647 55.8213 49.8 56.3684 49.2353C56.9155 48.6706 57.3632 48.0882 57.3632 47.9647C57.3632 47.8235 57.5124 47.6118 57.6947 47.4706C57.8771 47.3294 58.0263 47.1 58.0263 46.9412C58.0263 46.7824 58.1755 46.5529 58.3579 46.4118C58.5403 46.2706 58.6895 46.0412 58.6895 45.8824C58.6895 45.7235 58.8387 45.4941 59.0211 45.3529C59.2034 45.2118 59.3526 44.9647 59.3526 44.7882C59.3526 44.6118 59.4355 44.4706 59.5184 44.4706C59.6179 44.4706 59.6842 44.3118 59.6842 44.1176C59.6842 43.9235 59.7671 43.7647 59.85 43.7647C59.9495 43.7647 60.0158 43.6059 60.0158 43.4118C60.0158 43.2176 60.0987 43.0588 60.1816 43.0588C60.2811 43.0588 60.3474 42.9 60.3474 42.7059C60.3474 42.5118 60.4303 42.3529 60.5132 42.3529C60.6126 42.3529 60.679 42.1059 60.679 41.8235C60.679 41.5235 60.7618 41.2941 60.8447 41.2941C60.9442 41.2941 61.0105 41.1353 61.0105 40.9412C61.0105 40.7471 61.0934 40.5882 61.1763 40.5882C61.2758 40.5882 61.3421 40.3412 61.3421 40.0588C61.3421 39.7588 61.425 39.5294 61.5079 39.5294C61.6074 39.5294 61.6737 39.2824 61.6737 39C61.6737 38.7 61.7566 38.4706 61.8395 38.4706C61.939 38.4706 62.0053 38.1529 62.0053 37.7647C62.0053 37.3765 62.0882 37.0588 62.1711 37.0588C62.2705 37.0588 62.3368 36.7412 62.3368 36.3529C62.3368 35.9647 62.4197 35.6471 62.5026 35.6471C62.6021 35.6471 62.6684 35.1176 62.6684 34.4118C62.6684 33.7059 62.7347 33.1765 62.8342 33.1765C62.9337 33.1765 63 31.9941 63 30C63 28.0059 62.9337 26.8235 62.8342 26.8235C62.7347 26.8235 62.6684 26.2941 62.6684 25.5882C62.6684 24.8824 62.6021 24.3529 62.5026 24.3529C62.4197 24.3529 62.3368 24.0353 62.3368 23.6471C62.3368 23.2588 62.2705 22.9412 62.1711 22.9412C62.0882 22.9412 62.0053 22.6235 62.0053 22.2353C62.0053 21.8471 61.939 21.5294 61.8395 21.5294C61.7566 21.5294 61.6737 21.2824 61.6737 21C61.6737 20.7 61.6074 20.4706 61.5079 20.4706C61.425 20.4706 61.3421 20.2235 61.3421 19.9412C61.3421 19.6412 61.2758 19.4118 61.1763 19.4118C61.0934 19.4118 61.0105 19.1647 61.0105 18.8824C61.0105 18.5824 60.9442 18.3529 60.8447 18.3529C60.7618 18.3529 60.679 18.1941 60.679 18C60.679 17.8059 60.6126 17.6471 60.5132 17.6471C60.4303 17.6471 60.3474 17.4882 60.3474 17.2941C60.3474 17.1 60.2811 16.9412 60.1816 16.9412C60.0987 16.9412 60.0158 16.7824 60.0158 16.5882C60.0158 16.3941 59.9495 16.2353 59.85 16.2353C59.7671 16.2353 59.6842 16.0765 59.6842 15.8824C59.6842 15.6882 59.6179 15.5294 59.5184 15.5294C59.4355 15.5294 59.3526 15.3882 59.3526 15.2118C59.3526 15.0353 59.2034 14.7882 59.0211 14.6471C58.8387 14.5059 58.6895 14.2765 58.6895 14.1176C58.6895 13.9588 58.5403 13.7294 58.3579 13.5882C58.1755 13.4471 58.0263 13.2176 58.0263 13.0588C58.0263 12.9 57.8771 12.6706 57.6947 12.5294C57.5124 12.3882 57.3632 12.1765 57.3632 12.0353C57.3632 11.9118 56.9155 11.3294 56.3684 10.7647C55.8213 10.2 55.3737 9.63529 55.3737 9.52941C55.3737 9.28235 54.2795 8.11764 54.0474 8.11764C53.9479 8.11764 53.4174 7.64117 52.8868 7.05882C52.3563 6.47647 51.8092 6 51.6932 6C51.5605 6 51.3616 5.84117 51.2289 5.64706C51.0963 5.45294 50.8808 5.29412 50.7316 5.29412C50.5824 5.29412 50.3668 5.13529 50.2342 4.94117C50.1016 4.74706 49.8861 4.58823 49.7368 4.58823C49.5876 4.58823 49.3721 4.42941 49.2395 4.23529C49.1068 4.04117 48.8747 3.88235 48.7089 3.88235C48.5432 3.88235 48.4105 3.79412 48.4105 3.70588C48.4105 3.6 48.2613 3.52941 48.0789 3.52941C47.8966 3.52941 47.7474 3.44117 47.7474 3.35294C47.7474 3.24706 47.5982 3.17647 47.4158 3.17647C47.2334 3.17647 47.0842 3.08823 47.0842 3C47.0842 2.89412 46.935 2.82353 46.7526 2.82353C46.5703 2.82353 46.4211 2.73529 46.4211 2.64706C46.4211 2.54117 46.2718 2.47059 46.0895 2.47059C45.9071 2.47059 45.7579 2.38235 45.7579 2.29411C45.7579 2.18823 45.5424 2.11764 45.2605 2.11764C44.9953 2.11764 44.7632 2.02941 44.7632 1.94117C44.7632 1.83529 44.5476 1.7647 44.2658 1.7647C44.0005 1.7647 43.7684 1.67647 43.7684 1.58823C43.7684 1.48235 43.5529 1.41176 43.2711 1.41176C43.0058 1.41176 42.7737 1.32353 42.7737 1.23529C42.7737 1.12941 42.4753 1.05882 42.1105 1.05882C41.7458 1.05882 41.4474 0.970586 41.4474 0.88235C41.4474 0.776468 41.1489 0.70588 40.7842 0.70588C40.4195 0.70588 40.1211 0.617644 40.1211 0.529409C40.1211 0.423527 39.6237 0.352938 38.9605 0.352938C38.2974 0.352938 37.8 0.28235 37.8 0.176468C37.8 0.0705855 36.6892 -2.75671e-06 34.8158 -2.75671e-06C32.9424 -2.75671e-06 31.8316 0.0705855 31.8316 0.176468Z" fill="white"/>
</svg>
